<svg width="103" height="16" viewBox="0 0 103 16" fill="none" xmlns="http://www.w3.org/2000/svg">
<path d="M9.9082 13V4.46875H11.8828C12.2148 4.47266 12.5273 4.50781 12.8203 4.57422C13.1172 4.63672 13.3906 4.72656 13.6406 4.84375C13.9883 5.00391 14.2949 5.21484 14.5605 5.47656C14.8301 5.73438 15.0449 6.0332 15.2051 6.37305C15.3496 6.66211 15.459 6.97852 15.5332 7.32227C15.6113 7.66602 15.6523 8.0332 15.6562 8.42383V9.05078C15.6562 9.42578 15.6191 9.78125 15.5449 10.1172C15.4746 10.4531 15.3711 10.7617 15.2344 11.043C15.0938 11.3359 14.916 11.6016 14.7012 11.8398C14.4863 12.0781 14.2461 12.2812 13.9805 12.4492C13.6992 12.625 13.3809 12.7598 13.0254 12.8535C12.6738 12.9473 12.293 12.9961 11.8828 13H9.9082ZM11.0098 5.35938V12.1152H11.8828C12.1953 12.1113 12.4785 12.0723 12.7324 11.998C12.9902 11.9238 13.2188 11.8184 13.418 11.6816C13.6289 11.541 13.8105 11.3691 13.9629 11.166C14.1191 10.959 14.2422 10.7285 14.332 10.4746C14.4102 10.2676 14.4688 10.0449 14.5078 9.80664C14.5469 9.56445 14.5684 9.3125 14.5723 9.05078V8.41211C14.5684 8.14648 14.5449 7.89258 14.502 7.65039C14.4629 7.4043 14.4023 7.17578 14.3203 6.96484C14.2148 6.69141 14.0723 6.44531 13.8926 6.22656C13.7168 6.00391 13.5 5.82422 13.2422 5.6875C13.0586 5.58594 12.8535 5.50781 12.627 5.45312C12.4004 5.39453 12.1523 5.36328 11.8828 5.35938H11.0098ZM21.2988 10.791H18.4512L17.7656 13H16.6816L19.4355 4.46875H20.3438L23.0508 13H21.9727L21.2988 10.791ZM18.7441 9.84766H21.0117L19.8867 6.14453L18.7441 9.84766ZM30.1875 5.39453H27.5508V13H26.4961V5.39453H23.8594V4.46875H30.1875V5.39453ZM35.7129 10.791H32.8652L32.1797 13H31.0957L33.8496 4.46875H34.7578L37.4648 13H36.3867L35.7129 10.791ZM33.1582 9.84766H35.4258L34.3008 6.14453L33.1582 9.84766ZM51.6797 9.11523C51.6758 9.43164 51.6484 9.75 51.5977 10.0703C51.5469 10.3906 51.4707 10.6992 51.3691 10.9961C51.2637 11.293 51.1289 11.5723 50.9648 11.834C50.8047 12.0918 50.6113 12.3164 50.3848 12.5078L51.8555 13.7324L51.1113 14.4414L49.4238 13.0117C49.3027 13.0469 49.1758 13.0723 49.043 13.0879C48.9141 13.1074 48.7793 13.1172 48.6387 13.1172C48.2754 13.1172 47.9492 13.0625 47.6602 12.9531C47.3711 12.8398 47.1152 12.6875 46.8926 12.4961C46.666 12.3047 46.4707 12.0801 46.3066 11.8223C46.1426 11.5605 46.0078 11.2812 45.9023 10.9844C45.7969 10.6875 45.7188 10.3809 45.668 10.0645C45.6172 9.74414 45.5898 9.42773 45.5859 9.11523V8.36523C45.5898 8.05273 45.6172 7.73633 45.668 7.41602C45.7188 7.0957 45.7969 6.78711 45.9023 6.49023C46.0078 6.19336 46.1406 5.91602 46.3008 5.6582C46.4609 5.39648 46.6543 5.16797 46.8809 4.97266C47.1035 4.78125 47.3594 4.63086 47.6484 4.52148C47.9414 4.4082 48.2695 4.35156 48.6328 4.35156C48.9961 4.35156 49.3223 4.4082 49.6113 4.52148C49.9043 4.63086 50.1641 4.78125 50.3906 4.97266C50.6133 5.16406 50.8047 5.39062 50.9648 5.65234C51.1289 5.91016 51.2637 6.1875 51.3691 6.48438C51.4707 6.78125 51.5469 7.0918 51.5977 7.41602C51.6484 7.73633 51.6758 8.05273 51.6797 8.36523V9.11523ZM50.6016 8.35352C50.5977 8.13867 50.584 7.91602 50.5605 7.68555C50.541 7.45117 50.5039 7.2207 50.4492 6.99414C50.3906 6.77148 50.3125 6.55859 50.2148 6.35547C50.1211 6.15234 50.002 5.97266 49.8574 5.81641C49.7129 5.66406 49.5391 5.54297 49.3359 5.45312C49.1367 5.36328 48.9023 5.31836 48.6328 5.31836C48.3672 5.31836 48.1348 5.36523 47.9355 5.45898C47.7363 5.54883 47.5645 5.66992 47.4199 5.82227C47.2754 5.97852 47.1543 6.1582 47.0566 6.36133C46.9629 6.56445 46.8867 6.77734 46.8281 7C46.7695 7.22656 46.7266 7.45703 46.6992 7.69141C46.6758 7.92188 46.6641 8.14258 46.6641 8.35352V9.11523C46.6641 9.32617 46.6758 9.54883 46.6992 9.7832C46.7266 10.0137 46.7695 10.2422 46.8281 10.4688C46.8867 10.6953 46.9629 10.9102 47.0566 11.1133C47.1543 11.3164 47.2754 11.4961 47.4199 11.6523C47.5645 11.8086 47.7363 11.9336 47.9355 12.0273C48.1387 12.1172 48.373 12.1621 48.6387 12.1621C48.9082 12.1621 49.1426 12.1172 49.3418 12.0273C49.5449 11.9336 49.7188 11.8086 49.8633 11.6523C50.0078 11.5 50.127 11.3223 50.2207 11.1191C50.3145 10.916 50.3906 10.7012 50.4492 10.4746C50.5039 10.248 50.541 10.0195 50.5605 9.78906C50.584 9.55469 50.5977 9.33008 50.6016 9.11523V8.35352ZM58.6172 4.46875L58.6289 10.2461C58.6289 10.6445 58.5586 11.0176 58.418 11.3652C58.2773 11.7129 58.084 12.0156 57.8379 12.2734C57.5918 12.5352 57.2988 12.7422 56.959 12.8945C56.6191 13.043 56.2461 13.1172 55.8398 13.1172C55.4258 13.1172 55.0488 13.043 54.709 12.8945C54.3691 12.7461 54.0781 12.541 53.8359 12.2793C53.5938 12.0215 53.4043 11.7188 53.2676 11.3711C53.1309 11.0195 53.0605 10.6445 53.0566 10.2461L53.0684 4.46875H54.0996L54.123 10.2461C54.127 10.5 54.166 10.7441 54.2402 10.9785C54.3184 11.2129 54.4297 11.4199 54.5742 11.5996C54.7148 11.7793 54.8906 11.9238 55.1016 12.0332C55.3164 12.1426 55.5625 12.1973 55.8398 12.1973C56.1172 12.1973 56.3613 12.1445 56.5723 12.0391C56.7832 11.9297 56.9609 11.7832 57.1055 11.5996C57.2461 11.4199 57.3535 11.2129 57.4277 10.9785C57.502 10.7441 57.543 10.5 57.5508 10.2461L57.5684 4.46875H58.6172ZM65.1621 9.05664H61.5996V12.0801H65.7539V13H60.5156V4.46875H65.7012V5.39453H61.5996V8.13672H65.1621V9.05664ZM72.1406 10.8438C72.1406 10.582 72.0801 10.3613 71.959 10.1816C71.8418 10.002 71.6895 9.84961 71.502 9.72461C71.3145 9.60352 71.1074 9.50195 70.8809 9.41992C70.6582 9.33789 70.4434 9.26367 70.2363 9.19727C69.9355 9.09961 69.6289 8.98242 69.3164 8.8457C69.0078 8.70508 68.7266 8.53711 68.4727 8.3418C68.2148 8.14258 68.0039 7.9082 67.8398 7.63867C67.6797 7.36523 67.5996 7.04492 67.5996 6.67773C67.5996 6.31055 67.6797 5.98242 67.8398 5.69336C68.0039 5.4043 68.2168 5.16016 68.4785 4.96094C68.7402 4.76172 69.0371 4.61133 69.3691 4.50977C69.7012 4.4043 70.0352 4.35156 70.3711 4.35156C70.7422 4.35156 71.0996 4.41406 71.4434 4.53906C71.7871 4.66016 72.0918 4.83203 72.3574 5.05469C72.623 5.27734 72.8359 5.54688 72.9961 5.86328C73.1562 6.17969 73.2402 6.5332 73.248 6.92383H72.1348C72.1035 6.67773 72.043 6.45508 71.9531 6.25586C71.8633 6.05273 71.7441 5.87891 71.5957 5.73438C71.4473 5.58984 71.2695 5.47852 71.0625 5.40039C70.8594 5.31836 70.6289 5.27734 70.3711 5.27734C70.1641 5.27734 69.9609 5.30664 69.7617 5.36523C69.5664 5.42383 69.3926 5.51172 69.2402 5.62891C69.084 5.74609 68.959 5.89062 68.8652 6.0625C68.7754 6.23438 68.7305 6.43359 68.7305 6.66016C68.7344 6.90625 68.7969 7.11523 68.918 7.28711C69.0391 7.45508 69.1934 7.59766 69.3809 7.71484C69.5645 7.83203 69.7637 7.92969 69.9785 8.00781C70.1973 8.08594 70.4023 8.1543 70.5938 8.21289C70.9102 8.31055 71.2266 8.42969 71.543 8.57031C71.8594 8.70703 72.1484 8.88281 72.4102 9.09766C72.668 9.29688 72.875 9.54102 73.0312 9.83008C73.1914 10.1191 73.2715 10.4531 73.2715 10.832C73.2715 11.2148 73.1855 11.5488 73.0137 11.834C72.8457 12.1191 72.627 12.3555 72.3574 12.543C72.0879 12.7344 71.7832 12.8789 71.4434 12.9766C71.1035 13.0703 70.7637 13.1172 70.4238 13.1172C70.0176 13.1172 69.6172 13.0488 69.2227 12.9121C68.832 12.7754 68.4922 12.5781 68.2031 12.3203C67.9453 12.0977 67.7402 11.8379 67.5879 11.541C67.4395 11.2402 67.3594 10.9062 67.3477 10.5391H68.4551C68.4902 10.8047 68.5625 11.041 68.6719 11.248C68.7812 11.4512 68.9219 11.623 69.0938 11.7637C69.2656 11.9082 69.4629 12.0176 69.6855 12.0918C69.9121 12.1621 70.1582 12.1973 70.4238 12.1973C70.6348 12.1973 70.8418 12.1719 71.0449 12.1211C71.252 12.0664 71.4355 11.9824 71.5957 11.8691C71.7559 11.7598 71.8867 11.6211 71.9883 11.4531C72.0898 11.2812 72.1406 11.0781 72.1406 10.8438ZM80.6367 5.39453H78V13H76.9453V5.39453H74.3086V4.46875H80.6367V5.39453ZM82.0898 4.46875H87.2461V5.41211H85.2012V12.0625H87.2461V13H82.0898V12.0625H84.0879V5.41211H82.0898V4.46875ZM94.8457 9.22656C94.8418 9.53125 94.8145 9.83984 94.7637 10.1523C94.7168 10.4609 94.6426 10.7598 94.541 11.0488C94.4395 11.3379 94.3086 11.6074 94.1484 11.8574C93.9922 12.1074 93.8047 12.3262 93.5859 12.5137C93.3672 12.7012 93.1152 12.8496 92.8301 12.959C92.5488 13.0645 92.2324 13.1172 91.8809 13.1172C91.5293 13.1172 91.2109 13.0645 90.9258 12.959C90.6445 12.8496 90.3945 12.7012 90.1758 12.5137C89.957 12.3262 89.7676 12.1074 89.6074 11.8574C89.4473 11.6035 89.3164 11.332 89.2148 11.043C89.1094 10.7539 89.0312 10.4551 88.9805 10.1465C88.9297 9.83789 88.9023 9.53125 88.8984 9.22656V8.25391C88.9023 7.94922 88.9277 7.64258 88.9746 7.33398C89.0254 7.02148 89.1035 6.7207 89.209 6.43164C89.3105 6.14258 89.4395 5.87305 89.5957 5.62305C89.7559 5.36914 89.9453 5.14648 90.1641 4.95508C90.3828 4.76758 90.6328 4.62109 90.9141 4.51562C91.1992 4.40625 91.5176 4.35156 91.8691 4.35156C92.2207 4.35156 92.5391 4.40625 92.8242 4.51562C93.1094 4.62109 93.3613 4.76758 93.5801 4.95508C93.7988 5.14258 93.9863 5.36328 94.1426 5.61719C94.3027 5.86719 94.4355 6.13672 94.541 6.42578C94.6426 6.71484 94.7168 7.01562 94.7637 7.32812C94.8145 7.64062 94.8418 7.94922 94.8457 8.25391V9.22656ZM93.7734 8.24219C93.7695 8.03906 93.7559 7.82812 93.7324 7.60938C93.709 7.38672 93.6699 7.16602 93.6152 6.94727C93.5566 6.73242 93.4805 6.52734 93.3867 6.33203C93.293 6.13281 93.1758 5.95703 93.0352 5.80469C92.8945 5.65625 92.7285 5.53906 92.5371 5.45312C92.3457 5.36328 92.123 5.31836 91.8691 5.31836C91.6191 5.31836 91.3984 5.36328 91.207 5.45312C91.0156 5.54297 90.8496 5.66211 90.709 5.81055C90.5684 5.96289 90.4512 6.13867 90.3574 6.33789C90.2637 6.5332 90.1895 6.73828 90.1348 6.95312C90.0762 7.17188 90.0332 7.39258 90.0059 7.61523C89.9824 7.83398 89.9688 8.04297 89.9648 8.24219V9.22656C89.9688 9.42578 89.9824 9.63672 90.0059 9.85938C90.0332 10.082 90.0762 10.3008 90.1348 10.5156C90.1934 10.7344 90.2695 10.9434 90.3633 11.1426C90.457 11.3418 90.5742 11.5156 90.7148 11.6641C90.8555 11.8164 91.0215 11.9375 91.2129 12.0273C91.4043 12.1172 91.627 12.1621 91.8809 12.1621C92.1348 12.1621 92.3574 12.1172 92.5488 12.0273C92.7441 11.9375 92.9121 11.8164 93.0527 11.6641C93.1895 11.5156 93.3027 11.3438 93.3926 11.1484C93.4863 10.9492 93.5625 10.7402 93.6211 10.5215C93.6758 10.3066 93.7129 10.0879 93.7324 9.86523C93.7559 9.64258 93.7695 9.42969 93.7734 9.22656V8.24219ZM101.848 13H100.746L97.4355 6.625L97.418 13H96.3223V4.46875H97.4238L100.734 10.832L100.752 4.46875H101.848V13Z" fill="black"/>
<path d="M40.8223 10.5977C40.8262 10.3164 40.8379 10.0859 40.8574 9.90625C40.877 9.72266 40.918 9.55859 40.9805 9.41406C41.043 9.27344 41.1328 9.13867 41.25 9.00977C41.3672 8.87695 41.5234 8.7207 41.7188 8.54102C41.8516 8.4043 41.9863 8.26367 42.123 8.11914C42.2637 7.97461 42.3926 7.82227 42.5098 7.66211C42.623 7.50586 42.7168 7.33984 42.791 7.16406C42.8652 6.98828 42.9023 6.80273 42.9023 6.60742C42.9023 6.4043 42.873 6.22461 42.8145 6.06836C42.7598 5.9082 42.6777 5.77344 42.5684 5.66406C42.4473 5.54297 42.2949 5.45117 42.1113 5.38867C41.9277 5.32617 41.7168 5.29492 41.4785 5.29492C41.2949 5.29492 41.1152 5.31836 40.9395 5.36523C40.7676 5.4082 40.6152 5.47656 40.4824 5.57031C40.3457 5.66797 40.2363 5.79102 40.1543 5.93945C40.0723 6.08398 40.0312 6.25781 40.0312 6.46094H38.9473C38.9512 6.13281 39.0195 5.83789 39.1523 5.57617C39.2852 5.31445 39.4648 5.0918 39.6914 4.9082C39.9141 4.72852 40.1777 4.5918 40.4824 4.49805C40.791 4.40039 41.123 4.35156 41.4785 4.35156C41.873 4.35156 42.2246 4.40234 42.5332 4.50391C42.8457 4.60156 43.1094 4.74609 43.3242 4.9375C43.5391 5.12891 43.7031 5.36133 43.8164 5.63477C43.9297 5.9082 43.9863 6.2207 43.9863 6.57227C43.9863 6.85352 43.9375 7.11914 43.8398 7.36914C43.7422 7.61523 43.6172 7.84766 43.4648 8.06641C43.3125 8.28906 43.1406 8.49609 42.9492 8.6875C42.7617 8.87891 42.5762 9.05664 42.3926 9.2207C42.2754 9.33398 42.1836 9.44141 42.1172 9.54297C42.0547 9.64453 42.0078 9.74805 41.9766 9.85352C41.9453 9.95898 41.9258 10.0723 41.918 10.1934C41.9102 10.3105 41.9062 10.4453 41.9062 10.5977H40.8223ZM40.6992 12.4316C40.6992 12.2441 40.7539 12.0879 40.8633 11.9629C40.9766 11.8379 41.1445 11.7754 41.3672 11.7754C41.5898 11.7754 41.7578 11.8379 41.8711 11.9629C41.9883 12.0879 42.0469 12.2441 42.0469 12.4316C42.0469 12.6113 41.9883 12.7617 41.8711 12.8828C41.7578 13.0039 41.5898 13.0645 41.3672 13.0645C41.1445 13.0645 40.9766 13.0039 40.8633 12.8828C40.7539 12.7617 40.6992 12.6113 40.6992 12.4316Z" fill="#148DFC"/>
<line y1="12.5" x2="9" y2="12.5" stroke="#148DFC"/>
</svg>
